<svg xmlns="http://www.w3.org/2000/svg" width="2700" height="1850" viewBox="0 0 2700 1850">
<rect width="100%" height="100%" fill="white"/>
<defs><style>
.entity{fill:white;stroke:#111;stroke-width:3}.head{fill:white;stroke:#111;stroke-width:0}.rule{stroke:#111;stroke-width:1.8}.conn{fill:none;stroke:#111;stroke-width:3;stroke-linejoin:round;stroke-linecap:round}.sym{fill:white;stroke:#111;stroke-width:3}.title{font:700 35px Arial,Helvetica,sans-serif;fill:#111;letter-spacing:1px;text-anchor:middle}.ch{font:700 21px Arial,Helvetica,sans-serif;fill:#111}.row{font:23px Arial,Helvetica,sans-serif;fill:#111}.key{font:700 21px Arial,Helvetica,sans-serif;fill:#111}.rel{font:700 19px Arial,Helvetica,sans-serif;fill:#111}.note{font:700 17px Arial,Helvetica,sans-serif;fill:#111}
</style></defs>
<path class="conn" d="M 530 195 L 710 195"/>
<path class="conn" d="M 2388 344 L 2388 450"/>
<path class="conn" d="M 1360 225 L 1800 225 L 1800 645 L 1930 645"/>
<path class="conn" d="M 620 740 L 715 740"/>
<path class="conn" d="M 955 493 L 955 515 L 635 515 L 635 1075 L 948 1075 L 948 1135"/>
<path class="conn" d="M 1120 493 L 1120 535 L 1430 535 L 1430 1055 L 1210 1055 L 1210 1135"/>
<path class="conn" d="M 1460 1390 L 1710 1390"/>
<path class="conn" d="M 1360 315 L 1642 315 L 1642 1288 L 1710 1288"/>
<path class="conn" d="M 1360 390 L 1682 390 L 1682 1348 L 1710 1348"/>
<rect class="entity" x="60" y="100" width="470" height="244" rx="12"/>
<rect class="head" x="60" y="100" width="470" height="54"/>
<line class="rule" x1="60" y1="154" x2="530" y2="154"/>
<text class="title" x="295.0" y="136" text-anchor="middle">PEER_TYPES</text>
<line class="rule" x1="60" y1="196" x2="530" y2="196"/>
<line class="rule" x1="192" y1="154" x2="192" y2="344"/>
<line class="rule" x1="418" y1="154" x2="418" y2="344"/>
<text class="ch" x="84" y="185">TYPE</text>
<text class="ch" x="216" y="185">ATTRIBUTE</text>
<text class="ch" x="442" y="185">Key</text>
<text class="row" x="84" y="227">INTEGER</text>
<text class="row" x="216" y="227">id</text>
<text class="key" x="442" y="227">PK</text>
<text class="row" x="84" y="261">TEXT</text>
<text class="row" x="216" y="261">code</text>
<text class="key" x="442" y="261">UQ</text>
<text class="row" x="84" y="295">TEXT</text>
<text class="row" x="216" y="295">label</text>
<text class="row" x="84" y="329">INTEGER</text>
<text class="row" x="216" y="329">sort_order</text>
<rect class="entity" x="710" y="45" width="650" height="448" rx="12"/>
<rect class="head" x="710" y="45" width="650" height="54"/>
<line class="rule" x1="710" y1="99" x2="1360" y2="99"/>
<text class="title" x="1035.0" y="81" text-anchor="middle">PEERS</text>
<line class="rule" x1="710" y1="141" x2="1360" y2="141"/>
<line class="rule" x1="842" y1="99" x2="842" y2="493"/>
<line class="rule" x1="1248" y1="99" x2="1248" y2="493"/>
<text class="ch" x="734" y="130">TYPE</text>
<text class="ch" x="866" y="130">ATTRIBUTE</text>
<text class="ch" x="1272" y="130">Key</text>
<text class="row" x="734" y="172">TEXT</text>
<text class="row" x="866" y="172">id</text>
<text class="key" x="1272" y="172">PK</text>
<text class="row" x="734" y="206">TEXT</text>
<text class="row" x="866" y="206">display_name</text>
<text class="row" x="734" y="240">TEXT</text>
<text class="row" x="866" y="240">peer_type_code</text>
<text class="key" x="1272" y="240">FK</text>
<text class="row" x="734" y="274">INTEGER</text>
<text class="row" x="866" y="274">is_connected</text>
<text class="row" x="734" y="308">INTEGER</text>
<text class="row" x="866" y="308">signal_strength</text>
<text class="row" x="734" y="342">TEXT</text>
<text class="row" x="866" y="342">last_seen_at</text>
<text class="row" x="734" y="376">REAL</text>
<text class="row" x="866" y="376">latitude</text>
<text class="row" x="734" y="410">REAL</text>
<text class="row" x="866" y="410">longitude</text>
<text class="row" x="734" y="444">TEXT</text>
<text class="row" x="866" y="444">created_at</text>
<text class="row" x="734" y="478">TEXT</text>
<text class="row" x="866" y="478">updated_at</text>
<rect class="entity" x="2130" y="100" width="520" height="244" rx="12"/>
<rect class="head" x="2130" y="100" width="520" height="54"/>
<line class="rule" x1="2130" y1="154" x2="2650" y2="154"/>
<text class="title" x="2390.0" y="136" text-anchor="middle">CATEGORIES</text>
<line class="rule" x1="2130" y1="196" x2="2650" y2="196"/>
<line class="rule" x1="2262" y1="154" x2="2262" y2="344"/>
<line class="rule" x1="2538" y1="154" x2="2538" y2="344"/>
<text class="ch" x="2154" y="185">TYPE</text>
<text class="ch" x="2286" y="185">ATTRIBUTE</text>
<text class="ch" x="2562" y="185">Key</text>
<text class="row" x="2154" y="227">INTEGER</text>
<text class="row" x="2286" y="227">id</text>
<text class="key" x="2562" y="227">PK</text>
<text class="row" x="2154" y="261">TEXT</text>
<text class="row" x="2286" y="261">code</text>
<text class="key" x="2562" y="261">UQ</text>
<text class="row" x="2154" y="295">TEXT</text>
<text class="row" x="2286" y="295">label</text>
<text class="row" x="2154" y="329">INTEGER</text>
<text class="row" x="2286" y="329">sort_order</text>
<rect class="entity" x="60" y="600" width="560" height="312" rx="12"/>
<rect class="head" x="60" y="600" width="560" height="54"/>
<line class="rule" x1="60" y1="654" x2="620" y2="654"/>
<text class="title" x="340.0" y="636" text-anchor="middle">SCF_MESSAGES</text>
<line class="rule" x1="60" y1="696" x2="620" y2="696"/>
<line class="rule" x1="192" y1="654" x2="192" y2="912"/>
<line class="rule" x1="508" y1="654" x2="508" y2="912"/>
<text class="ch" x="84" y="685">TYPE</text>
<text class="ch" x="216" y="685">ATTRIBUTE</text>
<text class="ch" x="532" y="685">Key</text>
<text class="row" x="84" y="727">TEXT</text>
<text class="row" x="216" y="727">message_hash</text>
<text class="key" x="532" y="727">PK</text>
<text class="row" x="84" y="761">TEXT</text>
<text class="row" x="216" y="761">payload_json</text>
<text class="row" x="84" y="795">INTEGER</text>
<text class="row" x="216" y="795">hop_count</text>
<text class="row" x="84" y="829">TEXT</text>
<text class="row" x="216" y="829">received_at</text>
<text class="row" x="84" y="863">TEXT</text>
<text class="row" x="216" y="863">expires_at</text>
<text class="row" x="84" y="897">TEXT</text>
<text class="row" x="216" y="897">payload_type</text>
<rect class="entity" x="715" y="625" width="650" height="312" rx="12"/>
<rect class="head" x="715" y="625" width="650" height="54"/>
<line class="rule" x1="715" y1="679" x2="1365" y2="679"/>
<text class="title" x="1040.0" y="661" text-anchor="middle">SCF_PEER_STATUSES</text>
<line class="rule" x1="715" y1="721" x2="1365" y2="721"/>
<line class="rule" x1="847" y1="679" x2="847" y2="937"/>
<line class="rule" x1="1253" y1="679" x2="1253" y2="937"/>
<text class="ch" x="739" y="710">TYPE</text>
<text class="ch" x="871" y="710">ATTRIBUTE</text>
<text class="ch" x="1277" y="710">Key</text>
<text class="row" x="739" y="752">TEXT</text>
<text class="row" x="871" y="752">message_hash</text>
<text class="key" x="1277" y="752">PK, FK</text>
<text class="row" x="739" y="786">TEXT</text>
<text class="row" x="871" y="786">peer_id</text>
<text class="key" x="1277" y="786">PK</text>
<text class="row" x="739" y="820">TEXT</text>
<text class="row" x="871" y="820">status</text>
<text class="row" x="739" y="854">INTEGER</text>
<text class="row" x="871" y="854">attempt_count</text>
<text class="row" x="739" y="888">TEXT</text>
<text class="row" x="871" y="888">updated_at</text>
<text class="row" x="739" y="922">TEXT</text>
<text class="row" x="871" y="922">last_error</text>
<rect class="entity" x="1930" y="450" width="710" height="652" rx="12"/>
<rect class="head" x="1930" y="450" width="710" height="54"/>
<line class="rule" x1="1930" y1="504" x2="2640" y2="504"/>
<text class="title" x="2285.0" y="486" text-anchor="middle">SOS_MESSAGES</text>
<line class="rule" x1="1930" y1="546" x2="2640" y2="546"/>
<line class="rule" x1="2062" y1="504" x2="2062" y2="1102"/>
<line class="rule" x1="2528" y1="504" x2="2528" y2="1102"/>
<text class="ch" x="1954" y="535">TYPE</text>
<text class="ch" x="2086" y="535">ATTRIBUTE</text>
<text class="ch" x="2552" y="535">Key</text>
<text class="row" x="1954" y="577">TEXT</text>
<text class="row" x="2086" y="577">id</text>
<text class="key" x="2552" y="577">PK</text>
<text class="row" x="1954" y="611">TEXT</text>
<text class="row" x="2086" y="611">sender_peer_id</text>
<text class="key" x="2552" y="611">FK</text>
<text class="row" x="1954" y="645">TEXT</text>
<text class="row" x="2086" y="645">body</text>
<text class="row" x="1954" y="679">TEXT</text>
<text class="row" x="2086" y="679">category_code</text>
<text class="key" x="2552" y="679">FK</text>
<text class="row" x="1954" y="713">TEXT</text>
<text class="row" x="2086" y="713">status</text>
<text class="row" x="1954" y="747">REAL</text>
<text class="row" x="2086" y="747">latitude</text>
<text class="row" x="1954" y="781">REAL</text>
<text class="row" x="2086" y="781">longitude</text>
<text class="row" x="1954" y="815">TEXT</text>
<text class="row" x="2086" y="815">created_at</text>
<text class="row" x="1954" y="849">TEXT</text>
<text class="row" x="2086" y="849">updated_at</text>
<text class="row" x="1954" y="883">TEXT</text>
<text class="row" x="2086" y="883">message_hash</text>
<text class="row" x="1954" y="917">REAL</text>
<text class="row" x="2086" y="917">gps_accuracy_meters</text>
<text class="row" x="1954" y="951">INTEGER</text>
<text class="row" x="2086" y="951">hop_count</text>
<text class="row" x="1954" y="985">INTEGER</text>
<text class="row" x="2086" y="985">ttl_seconds</text>
<text class="row" x="1954" y="1019">TEXT</text>
<text class="row" x="2086" y="1019">moderation_status</text>
<text class="row" x="1954" y="1053">TEXT</text>
<text class="row" x="2086" y="1053">moderation_reason</text>
<text class="row" x="1954" y="1087">REAL</text>
<text class="row" x="2086" y="1087">moderation_score</text>
<rect class="entity" x="760" y="1135" width="700" height="414" rx="12"/>
<rect class="head" x="760" y="1135" width="700" height="54"/>
<line class="rule" x1="760" y1="1189" x2="1460" y2="1189"/>
<text class="title" x="1110.0" y="1171" text-anchor="middle">CONVERSATIONS</text>
<line class="rule" x1="760" y1="1231" x2="1460" y2="1231"/>
<line class="rule" x1="892" y1="1189" x2="892" y2="1549"/>
<line class="rule" x1="1348" y1="1189" x2="1348" y2="1549"/>
<text class="ch" x="784" y="1220">TYPE</text>
<text class="ch" x="916" y="1220">ATTRIBUTE</text>
<text class="ch" x="1372" y="1220">Key</text>
<text class="row" x="784" y="1262">TEXT</text>
<text class="row" x="916" y="1262">id</text>
<text class="key" x="1372" y="1262">PK</text>
<text class="row" x="784" y="1296">TEXT</text>
<text class="row" x="916" y="1296">local_peer_id</text>
<text class="key" x="1372" y="1296">FK, UQ*</text>
<text class="row" x="784" y="1330">TEXT</text>
<text class="row" x="916" y="1330">remote_peer_id</text>
<text class="key" x="1372" y="1330">FK, UQ*</text>
<text class="row" x="784" y="1364">TEXT</text>
<text class="row" x="916" y="1364">related_sos_message_hash</text>
<text class="row" x="784" y="1398">TEXT</text>
<text class="row" x="916" y="1398">last_message_at</text>
<text class="row" x="784" y="1432">INTEGER</text>
<text class="row" x="916" y="1432">unread_count</text>
<text class="row" x="784" y="1466">TEXT</text>
<text class="row" x="916" y="1466">created_at</text>
<text class="row" x="784" y="1500">TEXT</text>
<text class="row" x="916" y="1500">updated_at</text>
<text class="note" x="916" y="1536">* composite UNIQUE pair</text>
<rect class="entity" x="1710" y="1190" width="850" height="618" rx="12"/>
<rect class="head" x="1710" y="1190" width="850" height="54"/>
<line class="rule" x1="1710" y1="1244" x2="2560" y2="1244"/>
<text class="title" x="2135.0" y="1226" text-anchor="middle">CHAT_MESSAGES</text>
<line class="rule" x1="1710" y1="1286" x2="2560" y2="1286"/>
<line class="rule" x1="1842" y1="1244" x2="1842" y2="1808"/>
<line class="rule" x1="2448" y1="1244" x2="2448" y2="1808"/>
<text class="ch" x="1734" y="1275">TYPE</text>
<text class="ch" x="1866" y="1275">ATTRIBUTE</text>
<text class="ch" x="2472" y="1275">Key</text>
<text class="row" x="1734" y="1317">TEXT</text>
<text class="row" x="1866" y="1317">id</text>
<text class="key" x="2472" y="1317">PK</text>
<text class="row" x="1734" y="1351">TEXT</text>
<text class="row" x="1866" y="1351">message_hash</text>
<text class="key" x="2472" y="1351">UQ</text>
<text class="row" x="1734" y="1385">TEXT</text>
<text class="row" x="1866" y="1385">conversation_id</text>
<text class="key" x="2472" y="1385">FK</text>
<text class="row" x="1734" y="1419">TEXT</text>
<text class="row" x="1866" y="1419">sender_peer_id</text>
<text class="key" x="2472" y="1419">FK</text>
<text class="row" x="1734" y="1453">TEXT</text>
<text class="row" x="1866" y="1453">recipient_peer_id</text>
<text class="key" x="2472" y="1453">FK</text>
<text class="row" x="1734" y="1487">TEXT</text>
<text class="row" x="1866" y="1487">body</text>
<text class="row" x="1734" y="1521">TEXT</text>
<text class="row" x="1866" y="1521">status</text>
<text class="row" x="1734" y="1555">TEXT</text>
<text class="row" x="1866" y="1555">related_sos_message_hash</text>
<text class="row" x="1734" y="1589">INTEGER</text>
<text class="row" x="1866" y="1589">hop_count</text>
<text class="row" x="1734" y="1623">INTEGER</text>
<text class="row" x="1866" y="1623">ttl_seconds</text>
<text class="row" x="1734" y="1657">TEXT</text>
<text class="row" x="1866" y="1657">created_at</text>
<text class="row" x="1734" y="1691">TEXT</text>
<text class="row" x="1866" y="1691">updated_at</text>
<text class="row" x="1734" y="1725">TEXT</text>
<text class="row" x="1866" y="1725">moderation_status</text>
<text class="row" x="1734" y="1759">TEXT</text>
<text class="row" x="1866" y="1759">moderation_reason</text>
<text class="row" x="1734" y="1793">REAL</text>
<text class="row" x="1866" y="1793">moderation_score</text>
<line class="rule" x1="548" y1="177" x2="548" y2="213"/>
<line class="rule" x1="560" y1="177" x2="560" y2="213"/>
<circle class="sym" cx="660" cy="195" r="10"/>
<path class="conn" d="M 670 195 L 696 195"/>
<path class="conn" d="M 685 195 L 712 173"/>
<path class="conn" d="M 685 195 L 712 217"/>
<text class="rel" x="565" y="184">classifies</text>
<line class="rule" x1="2370" y1="366" x2="2406" y2="366"/>
<line class="rule" x1="2370" y1="378" x2="2406" y2="378"/>
<circle class="sym" cx="2388" cy="398" r="10"/>
<path class="conn" d="M 2388 408 L 2388 434"/>
<path class="conn" d="M 2388 423 L 2366 450"/>
<path class="conn" d="M 2388 423 L 2410 450"/>
<text class="rel" x="2415" y="404">categorizes</text>
<line class="rule" x1="1378" y1="207" x2="1378" y2="243"/>
<line class="rule" x1="1390" y1="207" x2="1390" y2="243"/>
<circle class="sym" cx="1880" cy="645" r="10"/>
<path class="conn" d="M 1890 645 L 1916 645"/>
<path class="conn" d="M 1905 645 L 1932 623"/>
<path class="conn" d="M 1905 645 L 1932 667"/>
<text class="rel" x="1818" y="632">sends SOS</text>
<line class="rule" x1="638" y1="722" x2="638" y2="758"/>
<line class="rule" x1="650" y1="722" x2="650" y2="758"/>
<circle class="sym" cx="665" cy="740" r="10"/>
<path class="conn" d="M 675 740 L 701 740"/>
<path class="conn" d="M 690 740 L 717 718"/>
<path class="conn" d="M 690 740 L 717 762"/>
<text class="rel" x="645" y="726">tracks</text>
<line class="rule" x1="937" y1="515" x2="973" y2="515"/>
<line class="rule" x1="937" y1="527" x2="973" y2="527"/>
<circle class="sym" cx="948" cy="1083" r="10"/>
<path class="conn" d="M 948 1093 L 948 1119"/>
<path class="conn" d="M 948 1108 L 926 1135"/>
<path class="conn" d="M 948 1108 L 970 1135"/>
<text class="rel" x="970" y="1045">local peer</text>
<line class="rule" x1="1102" y1="515" x2="1138" y2="515"/>
<line class="rule" x1="1102" y1="527" x2="1138" y2="527"/>
<circle class="sym" cx="1210" cy="1083" r="10"/>
<path class="conn" d="M 1210 1093 L 1210 1119"/>
<path class="conn" d="M 1210 1108 L 1188 1135"/>
<path class="conn" d="M 1210 1108 L 1232 1135"/>
<text class="rel" x="1235" y="1025">remote peer</text>
<line class="rule" x1="1478" y1="1372" x2="1478" y2="1408"/>
<line class="rule" x1="1490" y1="1372" x2="1490" y2="1408"/>
<circle class="sym" cx="1660" cy="1390" r="10"/>
<path class="conn" d="M 1670 1390 L 1696 1390"/>
<path class="conn" d="M 1685 1390 L 1712 1368"/>
<path class="conn" d="M 1685 1390 L 1712 1412"/>
<text class="rel" x="1542" y="1436">contains</text>
<line class="rule" x1="1378" y1="297" x2="1378" y2="333"/>
<line class="rule" x1="1390" y1="297" x2="1390" y2="333"/>
<circle class="sym" cx="1660" cy="1288" r="10"/>
<path class="conn" d="M 1670 1288 L 1696 1288"/>
<path class="conn" d="M 1685 1288 L 1712 1266"/>
<path class="conn" d="M 1685 1288 L 1712 1310"/>
<text class="rel" x="1480" y="1247">sends chat</text>
<line class="rule" x1="1378" y1="372" x2="1378" y2="408"/>
<line class="rule" x1="1390" y1="372" x2="1390" y2="408"/>
<circle class="sym" cx="1660" cy="1348" r="10"/>
<path class="conn" d="M 1670 1348 L 1696 1348"/>
<path class="conn" d="M 1685 1348 L 1712 1326"/>
<path class="conn" d="M 1685 1348 L 1712 1370"/>
<text class="rel" x="1480" y="1337">receives chat</text>
</svg>